<svg data-name="Layer 3" viewBox="0 0 32 32" xmlns="http://www.w3.org/2000/svg"><path d="m7.64 22.15 1.43-1.44A26.21 26.21 0 0 1 4.41 16C5.8 14.17 10.54 8.53 16 8.53a9.66 9.66 0 0 1 4.16 1l1.48-1.49A12 12 0 0 0 16 6.53c-7.53 0-13.41 8.54-13.66 8.91L2 16l.38.56a27.5 27.5 0 0 0 5.26 5.59ZM29.66 15.44a27.51 27.51 0 0 0-5-5.32l-1.43 1.43A26.47 26.47 0 0 1 27.59 16c-1.39 1.83-6.13 7.47-11.59 7.47a9.44 9.44 0 0 1-3.8-.87l-1.51 1.51A11.82 11.82 0 0 0 16 25.47c7.53 0 13.41-8.54 13.66-8.91L30 16Z" fill="#000000" class="fill-0832ff"></path><rect height="2" rx="1" ry="1" transform="rotate(-45 15.28 15.281)" width="26.29" x="2.14" y="14.28" fill="#000000" class="fill-0832ff"></rect><path d="m19.13 12.13-7 7a5 5 0 1 0 7-7Z" fill="#000000" class="fill-0832ff"></path><path d="m4.75 14.08 5.77 5.77M6.23 12.65 12 18.42M7.67 11.22l5.77 5.77M9.08 9.78l5.77 5.77M10.54 8.35l5.77 5.77M13.18 8.15l4.53 4.53M15.42 7.54l3.7 3.71" fill="none" stroke="#000000" stroke-miterlimit="10" class="stroke-0832ff"></path></svg>